<svg xmlns="http://www.w3.org/2000/svg" width="53.333" height="40" viewBox="0 0 53.333 40">
  <g id="multimedia_1_" data-name="multimedia (1)" transform="translate(0 -64)">
    <g id="Group_3121" data-name="Group 3121" transform="translate(0 64)">
      <path id="Path_931" data-name="Path 931" d="M48.889,64H4.444A4.449,4.449,0,0,0,0,68.444V99.556A4.449,4.449,0,0,0,4.444,104H48.889a4.449,4.449,0,0,0,4.444-4.444V68.444A4.449,4.449,0,0,0,48.889,64ZM4.444,66.222H48.889a2.1,2.1,0,0,1,.343.069L27.847,83.654a2.374,2.374,0,0,1-2.282.059L4.1,66.292A2.082,2.082,0,0,1,4.444,66.222ZM51.111,99.556a2.225,2.225,0,0,1-2.222,2.222H4.444a2.225,2.225,0,0,1-2.222-2.222V68.444a2.171,2.171,0,0,1,.142-.7l21.9,17.765a4.4,4.4,0,0,0,4.729.05,1.025,1.025,0,0,0,.183-.12L50.969,67.743a2.169,2.169,0,0,1,.142.7V99.556Z" transform="translate(0 -64)" fill="#333"/>
    </g>
  </g>
</svg>
