<svg xmlns="http://www.w3.org/2000/svg" width="22.703" height="40" viewBox="0 0 22.703 40">
  <path id="facebook_2_" data-name="facebook (2)" d="M14.523,40H8.118a1.942,1.942,0,0,1-1.94-1.94V23.611H2.44A1.943,1.943,0,0,1,.5,21.671V15.48a1.942,1.942,0,0,1,1.94-1.94H6.177v-3.1A10.556,10.556,0,0,1,8.969,2.877,10.054,10.054,0,0,1,16.381,0l4.885.008A1.943,1.943,0,0,1,23.2,1.948V7.7a1.942,1.942,0,0,1-1.94,1.94H17.974c-1,0-1.259.2-1.313.263-.09.1-.2.391-.2,1.189v2.449h4.552a1.972,1.972,0,0,1,.96.244,1.947,1.947,0,0,1,1,1.7l0,6.191a1.942,1.942,0,0,1-1.94,1.94H16.464V38.06A1.943,1.943,0,0,1,14.523,40Zm-6-2.345h5.6V22.562a1.3,1.3,0,0,1,1.3-1.3h5.213l0-5.381H15.414a1.3,1.3,0,0,1-1.3-1.3v-3.5A3.994,3.994,0,0,1,14.9,8.349a3.974,3.974,0,0,1,3.07-1.056h2.885V2.352l-4.479-.007c-4.846,0-7.857,3.1-7.857,8.094v4.15a1.3,1.3,0,0,1-1.3,1.3H2.845v5.381H7.227a1.3,1.3,0,0,1,1.3,1.3Zm12.739-35.3h0Zm0,0" transform="translate(-0.5)" fill="#333"/>
</svg>
