<svg id="technology" xmlns="http://www.w3.org/2000/svg" width="40" height="40" viewBox="0 0 40 40">
  <g id="Group_3120" data-name="Group 3120">
    <path id="Path_930" data-name="Path 930" d="M36.842,26.337a22.832,22.832,0,0,1-7.177-1.143,3.075,3.075,0,0,0-3.122.661L22,29.284A25.365,25.365,0,0,1,10.714,18l3.337-4.434a3.187,3.187,0,0,0,.781-3.221,22.894,22.894,0,0,1-1.147-7.185A3.162,3.162,0,0,0,10.526,0H3.158A3.162,3.162,0,0,0,0,3.158,36.885,36.885,0,0,0,36.842,40,3.162,3.162,0,0,0,40,36.842V29.495A3.162,3.162,0,0,0,36.842,26.337Zm1.053,10.505a1.054,1.054,0,0,1-1.053,1.053A34.777,34.777,0,0,1,2.105,3.158,1.054,1.054,0,0,1,3.158,2.105h7.368a1.054,1.054,0,0,1,1.053,1.053,24.992,24.992,0,0,0,1.246,7.832,1.165,1.165,0,0,1-.362,1.2L8.632,17.263a1.052,1.052,0,0,0-.1,1.112A27.622,27.622,0,0,0,21.625,31.465a1.048,1.048,0,0,0,1.114-.1l5.183-3.928a1.056,1.056,0,0,1,1.072-.251,24.976,24.976,0,0,0,7.848,1.253,1.054,1.054,0,0,1,1.053,1.053v7.347Z" fill="#333"/>
  </g>
</svg>
