<svg xmlns="http://www.w3.org/2000/svg" width="29.569" height="40" viewBox="0 0 29.569 40">
  <g id="positional" transform="translate(-33.362)">
    <path id="Path_928" data-name="Path 928" d="M80.879,38.8A8.719,8.719,0,1,0,89.6,47.519,8.729,8.729,0,0,0,80.879,38.8Zm0,15.092a6.373,6.373,0,1,1,6.374-6.373A6.381,6.381,0,0,1,80.879,53.892Z" transform="translate(-32.732 -32.734)" fill="#333"/>
    <path id="Path_929" data-name="Path 929" d="M48.146,0A14.8,14.8,0,0,0,33.362,14.784c0,4.7,3.943,11.706,6.293,15.463a67.075,67.075,0,0,0,4.679,6.623C46.695,39.758,47.54,40,48.146,40s1.413-.242,3.767-3.132a69.066,69.066,0,0,0,4.681-6.62c2.366-3.766,6.336-10.783,6.336-15.465A14.8,14.8,0,0,0,48.146,0Zm6.823,28.423a47.2,47.2,0,0,1-6.837,9.1c-1.026-.823-3.764-4.07-6.839-9.082-3.55-5.787-5.586-10.764-5.586-13.654a12.439,12.439,0,1,1,24.878,0C60.586,17.658,58.538,22.629,54.969,28.423Z" fill="#333"/>
  </g>
</svg>
